<?xml version="1.0" standalone="no"?>
<!DOCTYPE svg PUBLIC "-//W3C//DTD SVG 20010904//EN"
 "http://www.w3.org/TR/2001/REC-SVG-20010904/DTD/svg10.dtd">
<svg version="1.0" xmlns="http://www.w3.org/2000/svg"
 width="500.000000pt" height="500.000000pt" viewBox="0 0 500.000000 500.000000"
 preserveAspectRatio="xMidYMid meet">

<g transform="translate(0.000000,500.000000) scale(0.100000,-0.100000)"
fill="#000000" stroke="none">
<path d="M1497 3593 c-4 -3 -7 -48 -7 -100 l0 -93 -35 0 -35 0 0 -70 0 -70
-75 0 -75 0 0 -40 0 -40 75 0 74 0 3 -67 3 -68 32 -3 32 -3 3 -97 3 -97 55 0
55 0 3 168 2 167 108 0 107 0 54 -116 c66 -141 88 -160 176 -157 33 0 93 10
134 21 l74 20 -7 -151 c-4 -84 -9 -153 -10 -154 -1 -1 -50 -6 -110 -11 -120
-10 -147 -23 -181 -85 -24 -43 -27 -26 89 -387 90 -278 102 -296 194 -291 13
0 34 12 47 26 35 34 33 79 -14 270 -22 88 -38 161 -37 162 1 2 43 -2 92 -8 89
-11 351 -7 390 6 21 7 21 4 -12 -132 -60 -240 -56 -301 19 -321 79 -21 121 25
171 193 19 66 58 187 86 270 27 82 50 159 50 171 0 31 -40 84 -80 105 -19 11
-55 19 -80 19 -25 0 -69 3 -99 7 l-53 6 4 143 c2 78 6 146 10 149 4 4 28 0 55
-9 72 -23 177 -40 206 -32 50 12 82 53 137 170 l53 116 108 0 109 0 2 -167 3
-168 55 0 55 0 3 97 3 97 32 3 32 3 3 68 3 67 69 0 70 0 0 40 0 40 -70 0 -70
0 0 70 0 70 -35 0 -35 0 0 100 0 100 -60 0 -60 0 0 -170 0 -170 -95 0 c-87 0
-95 2 -95 19 0 28 -38 51 -83 51 -48 0 -75 -14 -87 -46 l-10 -24 -183 0 -183
0 -12 33 c-6 18 -28 48 -47 67 -34 33 -40 35 -105 35 -65 0 -71 -2 -105 -35
-19 -19 -41 -49 -47 -67 l-12 -33 -178 0 -178 0 -10 24 c-12 32 -39 46 -87 46
-45 0 -83 -23 -83 -51 0 -17 -8 -19 -95 -19 l-95 0 0 170 0 170 -53 0 c-30 0
-57 -3 -60 -7z m93 -374 l0 -360 -37 3 -38 3 -3 358 -2 357 40 0 40 0 0 -361z
m1908 4 l-3 -358 -37 -3 -38 -3 0 360 0 361 40 0 40 0 -2 -357z m-2008 2 l0
-155 -25 0 -25 0 0 155 0 155 25 0 25 0 0 -155z m1085 135 c37 -23 65 -73 65
-117 0 -41 -32 -95 -69 -117 -119 -69 -258 62 -193 182 37 70 129 94 197 52z
m995 -135 l0 -155 -25 0 -25 0 0 155 0 155 25 0 25 0 0 -155z m-1630 65 c27
-27 25 -46 -5 -66 -42 -27 -115 -4 -115 37 0 47 82 67 120 29z m1234 4 c34
-33 15 -69 -42 -80 -36 -7 -82 16 -82 41 0 46 90 74 124 39z m-1754 -74 c0
-18 -7 -20 -65 -20 -58 0 -65 2 -65 20 0 18 7 20 65 20 58 0 65 -2 65 -20z
m388 8 c24 -24 10 -29 -90 -26 -89 3 -103 5 -106 21 -3 15 6 17 90 17 60 0 98
-4 106 -12z m532 -8 c0 -19 -7 -20 -190 -20 -104 0 -190 4 -190 8 0 27 30 32
202 32 171 0 178 -1 178 -20z m698 8 c7 -7 12 -16 12 -20 0 -4 -88 -8 -195 -8
-188 0 -195 1 -195 20 0 19 7 20 183 20 129 0 187 -4 195 -12z m360 -5 c-3
-16 -17 -18 -106 -21 -56 -1 -102 1 -102 6 0 24 29 32 118 32 84 0 93 -2 90
-17z m312 -3 c0 -18 -7 -20 -60 -20 -53 0 -60 2 -60 20 0 18 7 20 60 20 53 0
60 -2 60 -20z m-1665 -105 c25 -36 50 -65 56 -65 12 0 12 17 -1 25 -22 14 -6
28 75 66 100 46 179 54 190 19 9 -27 51 -58 96 -70 58 -16 116 3 161 52 34 37
41 40 76 35 22 -2 78 -23 126 -45 83 -39 86 -42 80 -68 -10 -39 7 -25 62 51
l46 65 74 0 c41 0 74 -2 74 -5 0 -3 -25 -55 -55 -115 -82 -163 -108 -173 -308
-114 -95 27 -114 30 -100 12 5 -8 8 -78 5 -165 -4 -142 -6 -153 -23 -153 -10
0 -19 -4 -19 -9 0 -5 53 -12 118 -16 133 -7 170 -16 200 -48 37 -40 36 -66 -6
-193 -22 -65 -63 -191 -91 -280 -35 -109 -59 -168 -74 -182 -30 -28 -80 -29
-108 -1 -28 28 -23 78 26 282 21 87 36 159 34 162 -2 2 -31 -3 -64 -11 -79
-18 -328 -18 -415 1 -36 7 -67 12 -69 9 -2 -2 13 -77 34 -167 50 -209 53 -249
26 -276 -13 -13 -34 -21 -55 -21 -47 0 -80 41 -106 133 -12 40 -51 161 -87
270 -69 210 -71 231 -31 274 30 32 67 41 201 48 64 4 117 11 117 16 0 5 -9 9
-21 9 -20 0 -20 3 -14 118 8 152 14 202 26 202 5 0 9 6 9 14 0 11 -16 9 -75
-10 -42 -13 -106 -29 -143 -35 -102 -17 -119 -5 -187 131 -30 60 -55 112 -55
115 0 3 33 5 74 5 l74 0 47 -65z m93 33 l-67 -31 -20 24 c-11 13 -20 27 -21
32 0 4 39 7 88 7 l87 0 -67 -32z m825 1 c-10 -17 -23 -33 -29 -35 -5 -3 -44
11 -85 30 l-74 35 103 1 103 0 -18 -31z"/>
<path d="M2080 1771 c-48 -25 -73 -71 -74 -135 0 -64 25 -111 74 -137 42 -23
85 -24 123 -4 25 13 31 13 53 -1 31 -21 36 -9 32 77 l-3 64 -67 3 -68 3 0 -31
c0 -26 4 -30 28 -30 l27 -1 -22 -18 c-44 -37 -83 -2 -83 74 0 82 45 119 86 71
24 -27 57 -33 84 -16 13 8 13 13 0 37 -32 58 -124 80 -190 44z"/>
<path d="M2317 1784 c-3 -3 17 -43 45 -88 44 -70 52 -90 57 -146 l6 -65 40 0
40 0 3 68 c3 62 7 76 52 147 27 43 46 81 43 84 -4 3 -21 6 -39 6 -29 0 -36 -6
-61 -50 -15 -27 -30 -50 -33 -50 -3 0 -17 23 -32 50 -27 48 -30 50 -71 50 -24
0 -46 -3 -50 -6z"/>
<path d="M2644 1777 c-2 -7 -3 -76 -2 -152 l3 -140 30 0 30 0 5 95 5 95 31
-89 c48 -141 78 -143 121 -9 l28 88 5 -90 c5 -85 6 -90 29 -93 12 -2 34 -1 47
2 l25 7 -3 147 -3 147 -65 0 -65 0 -20 -62 c-11 -34 -23 -64 -26 -67 -3 -3
-15 26 -28 64 l-22 70 -60 0 c-40 0 -61 -4 -65 -13z"/>
<path d="M2132 1423 c-26 -50 -103 -285 -98 -298 4 -12 16 -15 43 -13 30 2 41
9 51 31 11 23 19 27 55 27 36 0 44 -4 59 -30 15 -26 22 -30 63 -30 27 0 47 5
50 13 3 6 -20 80 -49 162 l-54 150 -55 3 c-45 2 -58 0 -65 -15z m105 -5 c8
-11 103 -272 103 -284 0 -2 -18 -4 -41 -4 -36 0 -41 3 -50 30 -10 28 -14 30
-65 30 -52 0 -56 -2 -65 -30 -9 -25 -16 -30 -44 -30 l-34 0 44 123 c68 193 59
177 104 177 21 0 43 -6 48 -12z"/>
<path d="M2162 1301 c-16 -52 -17 -51 23 -51 39 0 41 6 21 55 -19 45 -30 44
-44 -4z m38 -28 c0 -7 -7 -13 -15 -13 -16 0 -19 9 -9 35 5 13 8 14 15 3 5 -7
9 -19 9 -25z"/>
<path d="M2377 1433 c-13 -12 -8 -298 5 -311 7 -7 28 -12 48 -12 48 0 60 15
60 71 l0 47 62 4 c51 4 65 9 85 32 46 54 24 141 -44 167 -28 10 -206 13 -216
2z m202 -16 c82 -29 94 -123 21 -159 -19 -10 -56 -18 -82 -18 l-48 0 0 -55 0
-55 -40 0 -40 0 0 150 0 150 78 -1 c42 0 92 -5 111 -12z"/>
<path d="M2472 1333 c2 -27 8 -39 21 -41 32 -6 65 7 72 29 10 30 -12 49 -57
49 -39 0 -39 0 -36 -37z m73 2 c0 -14 -8 -21 -27 -23 -24 -3 -28 0 -28 23 0
23 4 26 28 23 19 -2 27 -9 27 -23z"/>
<path d="M2687 1433 c-4 -3 -7 -75 -7 -159 0 -153 0 -154 24 -160 13 -3 37 -4
52 -2 27 3 29 6 34 58 l5 55 55 5 c88 9 120 36 120 102 0 40 -21 73 -60 93
-30 15 -210 22 -223 8z m230 -29 c36 -27 48 -67 32 -106 -15 -37 -60 -58 -124
-58 l-45 0 0 -55 0 -55 -40 0 -40 0 0 151 0 151 95 -4 c75 -3 100 -8 122 -24z"/>
<path d="M2782 1333 c3 -33 6 -38 31 -41 37 -4 59 15 55 47 -3 23 -8 26 -46
29 l-43 3 3 -38z m67 18 c23 -15 5 -41 -29 -41 -22 0 -30 5 -30 18 0 32 28 42
59 23z"/>
<path d="M1840 990 c-41 -41 -14 -130 41 -130 19 0 19 1 5 16 -23 22 -22 110
2 123 15 9 15 10 -5 11 -13 0 -32 -9 -43 -20z"/>
<path d="M1992 987 c-29 -31 -29 -77 1 -105 34 -32 48 -28 30 9 -14 29 -14 60
2 102 10 24 -8 21 -33 -6z"/>
<path d="M2070 991 c5 -11 10 -36 10 -56 0 -20 -5 -45 -10 -56 -13 -24 1 -25
29 -1 32 26 37 72 11 105 -26 32 -57 38 -40 8z"/>
<path d="M2155 935 c0 -70 1 -75 22 -75 20 0 22 6 25 75 3 74 3 75 -22 75 -24
0 -25 -2 -25 -75z"/>
<path d="M2285 935 c0 -70 1 -75 22 -75 20 0 22 6 25 75 3 74 3 75 -22 75 -24
0 -25 -2 -25 -75z"/>
<path d="M2426 965 c18 -31 25 -55 22 -75 -4 -27 -2 -30 22 -30 25 0 26 2 20
43 -11 74 -31 107 -63 107 l-28 0 27 -45z"/>
<path d="M2505 1000 c4 -6 11 -8 16 -5 14 9 11 15 -7 15 -8 0 -12 -5 -9 -10z"/>
<path d="M2587 938 l35 -72 14 26 c12 24 11 31 -12 72 -19 34 -32 46 -49 46
l-24 0 36 -72z"/>
<path d="M2679 1003 c-1 -5 -2 -38 -3 -75 -1 -64 0 -68 22 -68 21 0 22 4 22
75 0 68 -2 75 -20 75 -11 0 -20 -3 -21 -7z"/>
<path d="M2770 990 c-39 -39 -14 -130 36 -130 14 0 14 2 0 22 -18 26 -20 65
-6 102 12 32 -2 34 -30 6z"/>
<path d="M2850 991 c5 -11 10 -36 10 -56 0 -20 -5 -45 -10 -56 -12 -21 -7 -24
20 -9 22 12 42 64 33 88 -9 26 -34 52 -50 52 -10 0 -11 -5 -3 -19z"/>
<path d="M2941 984 c-12 -15 -21 -38 -21 -51 0 -25 40 -73 62 -73 9 0 9 3 0
12 -16 16 -16 110 0 126 9 9 8 12 -4 12 -9 0 -26 -12 -37 -26z"/>
<path d="M3027 980 c15 -31 11 -83 -9 -107 -19 -24 12 -14 37 12 15 14 25 36
25 53 0 30 -32 72 -55 72 -11 0 -11 -5 2 -30z"/>
<path d="M3105 935 c0 -73 1 -75 25 -75 24 0 25 2 25 75 0 73 -1 75 -25 75
-24 0 -25 -2 -25 -75z"/>
<path d="M3178 975 c3 -24 0 -35 -9 -35 -10 0 -10 -3 -1 -12 7 -7 12 -22 12
-35 0 -24 18 -37 44 -31 12 3 12 8 -4 40 -15 32 -16 39 -4 49 20 16 17 36 -5
49 -32 16 -37 12 -33 -25z"/>
<path d="M3255 935 c0 -74 0 -75 25 -75 24 0 26 3 22 35 -3 26 0 35 11 35 8 0
18 -6 20 -12 3 -7 6 0 6 17 1 22 -2 26 -11 17 -21 -21 -30 -13 -26 23 4 32 2
35 -22 35 -25 0 -25 -1 -25 -75z"/>
<path d="M3341 993 c7 -10 15 -20 16 -22 2 -2 3 5 3 17 0 14 -6 22 -16 22 -14
0 -15 -3 -3 -17z"/>
<path d="M1936 985 c4 -8 8 -15 10 -15 2 0 4 7 4 15 0 8 -4 15 -10 15 -5 0 -7
-7 -4 -15z"/>
<path d="M1686 941 c-21 -23 -18 -65 5 -69 12 -2 15 3 12 20 -2 13 3 32 12 43
16 19 16 18 11 -22 -5 -37 -4 -43 12 -43 11 0 18 8 19 23 1 12 5 32 8 45 5 19
2 22 -28 22 -21 0 -41 -8 -51 -19z"/>
<path d="M2237 885 c-17 -24 -17 -25 3 -25 15 0 20 6 20 25 0 30 -1 30 -23 0z"/>
<path d="M1936 885 c-3 -8 -1 -15 4 -15 6 0 10 7 10 15 0 8 -2 15 -4 15 -2 0
-6 -7 -10 -15z"/>
<path d="M2370 880 c-9 -16 -8 -20 5 -20 8 0 15 9 15 20 0 11 -2 20 -5 20 -2
0 -9 -9 -15 -20z"/>
<path d="M3345 880 c-18 -19 -17 -20 3 -20 15 0 22 6 22 20 0 11 -2 20 -3 20
-2 0 -12 -9 -22 -20z"/>
<path d="M2550 870 c0 -5 5 -10 10 -10 6 0 10 5 10 10 0 6 -4 10 -10 10 -5 0
-10 -4 -10 -10z"/>
</g>
</svg>
